<svg fill="none" viewBox="0 0 24 24" xmlns="http://www.w3.org/2000/svg">
  <rect width="24" height="24" rx="4" fill="#08111f" />
  <path
    d="M3.5 19.4V4.6h7.15c3.25 0 5.25 2 5.25 4.85 0 2.9-2 4.85-5.25 4.85H7.55v5.1H3.5Z"
    fill="#f8fbff"
  />
  <path d="M7.55 8v2.9h2.55c1.05 0 1.7-.58 1.7-1.45S11.15 8 10.1 8H7.55Z" fill="#08111f" />
  <path
    d="M14.25 19.4v-2.6l3.9-3.35c1.05-.9 1.45-1.4 1.45-2.05 0-.7-.5-1.15-1.35-1.15-.95 0-1.7.48-2.65 1.35l-1.85-2.45c1.25-1.3 2.8-2.05 4.85-2.05 2.85 0 4.75 1.6 4.75 3.9 0 1.75-.78 2.8-2.6 4.25l-1.45 1.15h4.15v3h-9.2Z"
    fill="#3b82f6"
  />
</svg>
